<svg width="41" height="28" viewBox="0 0 41 28" fill="none" xmlns="http://www.w3.org/2000/svg">
<rect x="0.0800781" width="40" height="28" rx="3.5" fill="#E99844"/>
<path fill-rule="evenodd" clip-rule="evenodd" d="M29.5802 8.47691H28.7147L28.0658 6.14959C28.035 6.04254 27.9696 5.94789 27.8733 5.90328C27.6333 5.79119 27.3687 5.70197 27.0801 5.65698V5.56738H28.4742C28.6666 5.56738 28.8109 5.70197 28.835 5.85829L29.1717 7.53706L30.0367 5.56738H30.8781L29.5802 8.47691ZM31.3593 8.47691H30.542L31.215 5.56738H32.0323L31.3593 8.47691ZM33.09 6.37313C33.114 6.21642 33.2583 6.12682 33.4267 6.12682C33.6912 6.10433 33.9794 6.14932 34.22 6.26103L34.3643 5.6346C34.1237 5.54499 33.8592 5.5 33.6191 5.5C32.8258 5.5 32.2486 5.90301 32.2486 6.46234C32.2486 6.88786 32.6575 7.11128 32.9461 7.24587C33.2583 7.38008 33.3786 7.46968 33.3545 7.60389C33.3545 7.80521 33.114 7.89481 32.8739 7.89481C32.5853 7.89481 32.2967 7.8277 32.0325 7.7156L31.8882 8.34243C32.1769 8.45414 32.4891 8.49913 32.7777 8.49913C33.6672 8.52124 34.22 8.11862 34.22 7.51429C34.22 6.75326 33.09 6.70865 33.09 6.37313V6.37313ZM37.0803 8.47691L36.4314 5.56738H35.7343C35.59 5.56738 35.4457 5.65698 35.3976 5.79119L34.1959 8.47691H35.0372L35.2052 8.05179H36.239L36.3352 8.47691H37.0803ZM35.8544 6.35059L36.0945 7.44714H35.4214L35.8544 6.35059Z" fill="white"/>
<path d="M6.56456 3.99988C5.98156 3.99996 5.41167 4.17292 4.92696 4.49688C4.44226 4.82085 4.0645 5.28126 3.84145 5.81991C3.61841 6.35856 3.56009 6.95125 3.67388 7.52304C3.78767 8.09483 4.06846 8.62004 4.48074 9.03225C4.89301 9.44447 5.41826 9.72517 5.99007 9.83888C6.56187 9.95259 7.15456 9.89419 7.69317 9.67106C8.23179 9.44793 8.69215 9.07011 9.01604 8.58535C9.33993 8.1006 9.5128 7.53069 9.5128 6.94768C9.51188 6.16608 9.20095 5.41677 8.64824 4.86413C8.09552 4.3115 7.34616 4.00068 6.56456 3.99988V3.99988ZM6.90719 8.09833C6.61285 8.47149 6.18459 8.71514 5.71344 8.77749C5.71344 8.77749 6.0565 8.64688 6.38214 8.11009C6.69386 7.54195 6.72042 7.11268 7.01385 6.74394C7.50972 6.1205 8.14883 6.26809 8.14883 6.26809C8.07525 6.03474 7.85844 5.89107 7.55064 5.90457C7.45051 5.58023 7.01733 5.46007 6.70866 5.62071C6.47923 5.73957 6.23282 5.91197 5.95767 5.90631C5.927 5.90695 5.89632 5.90564 5.86581 5.90239C5.69421 5.87594 5.53588 5.79433 5.41478 5.66991C5.39562 5.93765 5.56803 6.18842 5.77177 6.27201C6.12006 6.41437 6.36604 6.24153 6.36604 6.24153C6.14606 6.8216 5.7503 7.31843 5.23411 7.66254C4.6529 7.37477 4.26979 6.8506 4.18925 6.12834C4.38282 5.56769 4.76912 5.09395 5.27933 4.7915C5.78955 4.48904 6.39056 4.3775 6.97532 4.47675C7.56009 4.57599 8.09064 4.87958 8.47249 5.33344C8.85435 5.7873 9.06271 6.36196 9.06046 6.95509C9.06046 6.98295 9.06046 7.01038 9.06046 7.03824C8.8205 7.38263 8.4971 7.66052 8.12051 7.84592C7.74393 8.03132 7.32647 8.11817 6.90719 8.09833Z" fill="#F5F5F5"/>
<path d="M4.79483 21.5158C4.6516 21.5158 4.5208 21.4809 4.40243 21.411C4.28406 21.34 4.18936 21.2453 4.11834 21.127C4.0485 21.0086 4.01358 20.8778 4.01358 20.7346C4.01358 20.5901 4.0485 20.4593 4.11834 20.3422C4.18936 20.2238 4.28406 20.1297 4.40243 20.0598C4.5208 19.9888 4.6516 19.9533 4.79483 19.9533C4.93925 19.9533 5.07005 19.9888 5.18723 20.0598C5.3056 20.1297 5.39971 20.2238 5.46955 20.3422C5.54057 20.4593 5.57608 20.5901 5.57608 20.7346C5.57608 20.8778 5.54057 21.0086 5.46955 21.127C5.39971 21.2453 5.3056 21.34 5.18723 21.411C5.07005 21.4809 4.93925 21.5158 4.79483 21.5158ZM6.8753 21.5158C6.73207 21.5158 6.60127 21.4809 6.4829 21.411C6.36453 21.34 6.26983 21.2453 6.19881 21.127C6.12897 21.0086 6.09405 20.8778 6.09405 20.7346C6.09405 20.5901 6.12897 20.4593 6.19881 20.3422C6.26983 20.2238 6.36453 20.1297 6.4829 20.0598C6.60127 19.9888 6.73207 19.9533 6.8753 19.9533C7.01971 19.9533 7.15051 19.9888 7.2677 20.0598C7.38607 20.1297 7.48018 20.2238 7.55002 20.3422C7.62104 20.4593 7.65655 20.5901 7.65655 20.7346C7.65655 20.8778 7.62104 21.0086 7.55002 21.127C7.48018 21.2453 7.38607 21.34 7.2677 21.411C7.15051 21.4809 7.01971 21.5158 6.8753 21.5158ZM10.5626 22.6025C10.3258 22.6025 10.1139 22.5581 9.9269 22.4693C9.73987 22.3793 9.59132 22.2562 9.48123 22.1C9.37233 21.9437 9.31433 21.765 9.30723 21.5637H9.94643C9.95827 21.7129 10.0228 21.8348 10.14 21.9295C10.2572 22.023 10.398 22.0698 10.5626 22.0698C10.6916 22.0698 10.8064 22.0402 10.907 21.981C11.0076 21.9218 11.0869 21.8395 11.1449 21.7342C11.2029 21.6288 11.2314 21.5087 11.2302 21.3738C11.2314 21.2364 11.2023 21.1145 11.1432 21.008C11.084 20.9015 11.0029 20.818 10.8999 20.7576C10.7969 20.6961 10.6786 20.6653 10.5448 20.6653C10.4359 20.6641 10.3288 20.6842 10.2234 20.7257C10.1181 20.7671 10.0346 20.8216 9.97306 20.889L9.37825 20.7914L9.56824 18.9164H11.6776V19.4668H10.1133L10.0086 20.4309H10.0299C10.0974 20.3516 10.1926 20.2859 10.3157 20.2338C10.4389 20.1806 10.5738 20.1539 10.7206 20.1539C10.9407 20.1539 11.1372 20.206 11.3101 20.3102C11.4829 20.4132 11.619 20.5552 11.7184 20.7363C11.8179 20.9174 11.8676 21.1246 11.8676 21.3578C11.8676 21.5981 11.812 21.8123 11.7007 22.0005C11.5906 22.1876 11.4373 22.3349 11.2408 22.4426C11.0455 22.5492 10.8194 22.6025 10.5626 22.6025ZM11.9967 21.878V21.3542L13.5397 18.9164H13.9765V19.6621H13.7101L12.6714 21.3081V21.3365H14.8252V21.878H11.9967ZM13.7314 22.5527V21.7182L13.7385 21.4838V18.9164H14.36V22.5527H13.7314ZM16.3242 22.6025C16.1502 22.6013 15.9803 22.5711 15.8146 22.5119C15.6489 22.4515 15.4997 22.3539 15.3671 22.2189C15.2346 22.0828 15.1292 21.9023 15.0511 21.6774C14.973 21.4513 14.9345 21.1713 14.9357 20.8375C14.9357 20.5262 14.9688 20.2486 15.0351 20.0048C15.1014 19.7609 15.1967 19.555 15.321 19.3869C15.4453 19.2176 15.595 19.0886 15.7702 18.9998C15.9466 18.911 16.1436 18.8667 16.3615 18.8667C16.5899 18.8667 16.7923 18.9116 16.9687 19.0016C17.1463 19.0916 17.2895 19.2147 17.3984 19.3709C17.5073 19.526 17.5748 19.7012 17.6008 19.8965H16.9527C16.9196 19.7568 16.8515 19.6455 16.7485 19.5627C16.6467 19.4786 16.5177 19.4366 16.3615 19.4366C16.1093 19.4366 15.9152 19.5461 15.7791 19.7651C15.6441 19.9841 15.5761 20.2847 15.5749 20.6671H15.5997C15.6577 20.5629 15.7329 20.4735 15.8252 20.399C15.9176 20.3244 16.0217 20.267 16.1377 20.2267C16.2549 20.1853 16.3786 20.1646 16.5088 20.1646C16.7219 20.1646 16.9131 20.2155 17.0823 20.3173C17.2528 20.4191 17.3877 20.5594 17.4872 20.7381C17.5866 20.9157 17.6357 21.1193 17.6345 21.3489C17.6357 21.588 17.5813 21.8029 17.4712 21.9934C17.3611 22.1828 17.2078 22.332 17.0113 22.4409C16.8148 22.5498 16.5858 22.6036 16.3242 22.6025ZM16.3206 22.0698C16.4496 22.0698 16.5651 22.0384 16.6669 21.9757C16.7686 21.9129 16.8491 21.8283 16.9083 21.7218C16.9675 21.6152 16.9965 21.4957 16.9953 21.3631C16.9965 21.2329 16.9681 21.1151 16.9101 21.0098C16.8533 20.9044 16.7746 20.821 16.674 20.7594C16.5733 20.6979 16.4585 20.6671 16.3295 20.6671C16.2336 20.6671 16.1442 20.6854 16.0614 20.7221C15.9785 20.7588 15.9063 20.8097 15.8448 20.8748C15.7832 20.9387 15.7347 21.0133 15.6992 21.0985C15.6648 21.1826 15.6471 21.2725 15.6459 21.3684C15.6471 21.4951 15.6767 21.6117 15.7347 21.7182C15.7927 21.8248 15.8726 21.91 15.9744 21.9739C16.0762 22.0378 16.1916 22.0698 16.3206 22.0698ZM17.769 21.878V21.3542L19.3119 18.9164H19.7487V19.6621H19.4824L18.4437 21.3081V21.3365H20.5975V21.878H17.769ZM19.5037 22.5527V21.7182L19.5108 21.4838V18.9164H20.1323V22.5527H19.5037Z" fill="white" fill-opacity="0.87"/>
</svg>
